<svg width="34" height="32" viewBox="0 0 34 32" fill="none" xmlns="http://www.w3.org/2000/svg">
<path fill-rule="evenodd" clip-rule="evenodd" d="M8.29118 4.01231V6.61672L5.18564 6.8674C2.9899 7.04464 1.19878 8.69789 0.846629 10.8725C0.770095 11.345 0.700493 11.8185 0.637823 12.2926C0.606724 12.5279 0.732191 12.7556 0.946682 12.8572L1.08795 12.9241C11.0406 17.6366 22.9585 17.6366 32.9111 12.9241L33.0523 12.8572C33.2668 12.7556 33.3923 12.5279 33.3612 12.2926C33.2985 11.8185 33.2289 11.3451 33.1524 10.8725C32.8002 8.69789 31.0091 7.04464 28.8134 6.8674L25.7078 6.61673V4.01231C25.7078 2.42419 24.546 1.07505 22.9754 0.83947L20.7389 0.503994C18.2599 0.132132 15.7392 0.132133 13.2601 0.503994L11.0236 0.83947C9.45305 1.07505 8.29118 2.42419 8.29118 4.01231ZM20.331 3.22357C18.1224 2.89227 15.8767 2.89227 13.668 3.22357L11.4315 3.55905C11.2072 3.5927 11.0412 3.78543 11.0412 4.01231V6.42317C15.0101 6.1958 18.9889 6.1958 22.9578 6.42317V4.01231C22.9578 3.78544 22.7919 3.5927 22.5675 3.55905L20.331 3.22357Z" fill="black"/>
<path d="M33.7164 16.1301C33.7027 15.8732 33.4338 15.7127 33.1986 15.8169C22.9852 20.339 11.0138 20.339 0.800401 15.8168C0.565189 15.7127 0.29627 15.8732 0.282593 16.13C0.0960088 19.6344 0.284021 23.1537 0.846629 26.6278C1.19878 28.8023 2.9899 30.4556 5.18564 30.6328L8.61749 30.9098C14.1964 31.3602 19.8026 31.3602 25.3815 30.9098L28.8134 30.6328C31.0091 30.4556 32.8002 28.8023 33.1524 26.6278C33.715 23.1537 33.903 19.6344 33.7164 16.1301Z" fill="black"/>
</svg>
