<svg width="37" height="35" viewBox="0 0 37 35" fill="none" xmlns="http://www.w3.org/2000/svg">
<path d="M33.1045 4.62484H7.78142L5.61776 0.746598C5.3749 0.311286 4.91547 0.0415039 4.41699 0.0415039H1.66699C0.907601 0.0415039 0.291992 0.657112 0.291992 1.4165C0.291992 2.1759 0.9076 2.7915 1.66699 2.7915H3.60959L5.74486 6.61886L10.6693 17.5148L10.6744 17.5259L11.1081 18.4856L6.16391 23.7594C5.80841 24.1386 5.69713 24.6859 5.8763 25.1738C6.05547 25.6617 6.49447 26.0069 7.0109 26.066L11.5175 26.581C17.1544 27.2252 22.8463 27.2252 28.4832 26.581L32.9898 26.066C33.7443 25.9797 34.286 25.2982 34.1998 24.5437C34.1136 23.7892 33.432 23.2475 32.6776 23.3337L28.171 23.8488C22.7416 24.4693 17.2591 24.4693 11.8297 23.8488L10.0413 23.6444L13.6701 19.7736C13.7052 19.7362 13.7378 19.6973 13.7679 19.6571L15.1481 19.8367C17.0821 20.0884 19.0371 20.1377 20.9814 19.9839C25.5161 19.6253 29.7189 17.4675 32.653 13.9915L33.7128 12.736C33.7484 12.6938 33.7814 12.6495 33.8117 12.6034L35.7869 9.59334C37.1869 7.45977 35.6564 4.62484 33.1045 4.62484Z" fill="black"/>
<path d="M9.917 28.9165C8.39821 28.9165 7.167 30.1477 7.167 31.6665C7.167 33.1853 8.39821 34.4165 9.917 34.4165C11.4358 34.4165 12.667 33.1853 12.667 31.6665C12.667 30.1477 11.4358 28.9165 9.917 28.9165Z" fill="black"/>
<path d="M27.3337 31.6665C27.3337 30.1477 28.5649 28.9165 30.0837 28.9165C31.6024 28.9165 32.8337 30.1477 32.8337 31.6665C32.8337 33.1853 31.6024 34.4165 30.0837 34.4165C28.5649 34.4165 27.3337 33.1853 27.3337 31.6665Z" fill="black"/>
</svg>
