<svg width="33" height="38" viewBox="0 0 33 38" fill="none" xmlns="http://www.w3.org/2000/svg">
<path d="M18.7514 5.53082V0H0.901855V38H18.7514V32.4692C15.0949 32.4692 11.5882 31.0501 9.00266 28.5241C6.41715 25.9982 4.96462 22.5722 4.96462 19C4.96462 15.4278 6.41715 12.0018 9.00266 9.47585C11.5882 6.94989 15.0949 5.53082 18.7514 5.53082Z" fill="#0A071B"/>
<path d="M18.7515 5.53101V32.4694C22.4079 32.4694 25.9146 31.0503 28.5002 28.5243C31.0857 25.9984 32.5382 22.5724 32.5382 19.0002C32.5382 15.4279 31.0857 12.002 28.5002 9.47604C25.9146 6.95008 22.4079 5.53101 18.7515 5.53101Z" fill="#0A071B"/>
</svg>
