<svg width="37" height="34" viewBox="0 0 37 34" fill="none" xmlns="http://www.w3.org/2000/svg">
<path d="M0.0855811 32.9599V0.730469H13.7046C9.19065 11.4993 4.6892 22.2411 0.18566 32.985L0.0834961 32.9599H0.0855811Z" fill="#0A071B"/>
<path d="M23.333 0.714733H36.9416V32.9442L36.8499 32.9838C32.3588 22.2608 27.8657 11.5357 23.333 0.712646V0.714733Z" fill="#0A071B"/>
<path d="M27.2242 33.285C25.3311 33.285 23.5463 33.2976 21.7637 33.2642C21.6136 33.2621 21.4072 32.9827 21.3279 32.7888C20.6003 31.0062 19.8664 29.2256 19.2013 27.4221C18.9928 26.855 18.7009 26.7132 18.1379 26.7257C16.5346 26.7612 14.9271 26.7382 13.3237 26.7382C13.1048 26.7382 12.8859 26.7382 12.5439 26.7382C14.5393 22.047 16.495 17.4518 18.5195 12.6897C21.4489 19.6201 24.3178 26.4109 27.2242 33.285Z" fill="#0A071B"/>
</svg>
