<svg width="36" height="36" viewBox="0 0 36 36" fill="none" xmlns="http://www.w3.org/2000/svg">
<path d="M33.6573 11.1608C33.0093 9.67858 32.1516 8.2973 31.1106 7.05931C29.5716 5.1746 27.6511 3.63726 25.4754 2.54848C23.2997 1.4597 20.9182 0.844159 18.4876 0.742377C16.0569 0.640595 13.6323 1.05487 11.3732 1.95795C9.11414 2.86103 7.0719 4.23243 5.38088 5.98189C3.68986 7.73134 2.3884 9.8192 1.56216 12.108C0.735927 14.3969 0.403646 16.8348 0.587193 19.2613C0.77074 21.6878 1.46595 24.048 2.62707 26.1864C3.78819 28.3248 5.38889 30.193 7.32382 31.6681C8.56537 32.6334 9.93724 33.4182 11.3986 33.999C13.4476 34.8389 15.6404 35.2715 17.8547 35.2728C22.4254 35.2626 26.8056 33.4402 30.0351 30.2049C33.2647 26.9696 35.0802 22.5855 35.0835 18.0135C35.0869 15.6552 34.6013 13.3218 33.6573 11.1608ZM17.8419 4.24433C19.8304 4.24412 21.7948 4.67885 23.5976 5.51807C23.158 5.70808 22.6958 5.84078 22.2224 5.91294C20.6645 6.13851 19.2214 6.86198 18.1083 7.97535C16.9952 9.08872 16.272 10.5323 16.0465 12.0906C15.9475 12.9645 15.5501 13.7776 14.9215 14.3925C14.2928 15.0074 13.4713 15.3866 12.5956 15.466C11.0378 15.6916 9.59459 16.4151 8.48154 17.5284C7.36848 18.6418 6.64523 20.0854 6.41972 21.6437C6.34337 22.4747 5.98892 23.2556 5.41374 23.86C4.42134 21.7625 3.97553 19.4479 4.11779 17.1317C4.26005 14.8155 4.98576 12.573 6.2274 10.6127C7.46903 8.6525 9.18622 7.03831 11.2192 5.92039C13.2521 4.80246 15.5348 4.21712 17.8547 4.21885L17.8419 4.24433ZM7.31108 26.9297C7.46389 26.7896 7.6167 26.6622 7.7695 26.5094C8.90237 25.4107 9.62955 23.9604 9.83238 22.3952C9.91462 21.5153 10.3073 20.6935 10.9402 20.077C11.5492 19.4429 12.3689 19.0533 13.245 18.9816C14.8029 18.756 16.2461 18.0325 17.3591 16.9191C18.4722 15.8058 19.1954 14.3622 19.4209 12.8039C19.476 11.8836 19.8708 11.0166 20.5288 10.371C21.1528 9.74926 21.9803 9.37383 22.8591 9.31383C24.2902 9.11687 25.625 8.48044 26.6792 7.49238C27.8796 8.48854 28.8966 9.68691 29.6844 11.0334C29.636 11.0988 29.5805 11.1586 29.5189 11.2117C28.911 11.8514 28.0924 12.2495 27.214 12.3326C25.6546 12.5542 24.2092 13.2764 23.0955 14.3905C21.9817 15.5046 21.2597 16.9504 21.0381 18.5103C20.9484 19.3872 20.5583 20.206 19.9341 20.8282C19.3098 21.4503 18.4897 21.8374 17.6127 21.9239C16.0503 22.1478 14.6018 22.8698 13.4823 23.9827C12.3628 25.0956 11.6321 26.5401 11.3986 28.1016C11.3301 28.7241 11.1164 29.3218 10.7747 29.8466C9.46819 29.0707 8.29807 28.0853 7.31108 26.9297ZM17.8419 31.8464C16.5498 31.8478 15.2639 31.6677 14.0218 31.3114C14.4467 30.5191 14.7229 29.6557 14.8368 28.7639C14.926 27.889 15.3142 27.0716 15.9359 26.4498C16.5576 25.8279 17.3748 25.4395 18.2494 25.3503C19.8096 25.1272 21.2556 24.4049 22.3712 23.2913C23.4868 22.1777 24.2119 20.7328 24.4381 19.1726C24.5273 18.2977 24.9155 17.4803 25.5372 16.8585C26.1589 16.2366 26.976 15.8483 27.8507 15.759C29.0248 15.6062 30.1438 15.169 31.1106 14.4852C31.6474 16.5206 31.711 18.6518 31.2965 20.7156C30.882 22.7793 30.0004 24.7206 28.7193 26.3906C27.4383 28.0606 25.7919 29.4149 23.9063 30.3496C22.0208 31.2843 19.9463 31.7745 17.8419 31.7827V31.8464Z" fill="#0A071B"/>
</svg>
