<svg width="34" height="36" viewBox="0 0 34 36" fill="none" xmlns="http://www.w3.org/2000/svg">
<path d="M25.9115 15.8884C25.4289 16.3824 25.0594 16.9785 24.8291 17.6344C24.5989 18.2903 24.5137 18.9897 24.5796 19.6829L24.5566 19.6596C24.6243 20.4755 24.5162 21.2967 24.2398 22.0657C23.9633 22.8348 23.5252 23.5332 22.9561 24.1122C22.387 24.6912 21.7005 25.1369 20.9445 25.4182C20.1886 25.6994 19.3815 25.8094 18.5794 25.7405L18.6024 25.7639C17.643 25.673 16.6794 25.8854 15.843 26.3721C15.0066 26.8588 14.3381 27.5961 13.9287 28.4835C13.5193 29.3708 13.3888 30.3651 13.5552 31.3306C13.7215 32.2961 14.1765 33.186 14.8581 33.8788C15.5397 34.5717 16.4148 35.0338 17.364 35.2021C18.3133 35.3704 19.2904 35.2368 20.1623 34.8195C21.0341 34.4021 21.7582 33.7214 22.2358 32.87C22.7135 32.0187 22.9214 31.0382 22.8312 30.0622L22.8554 30.0856C22.7877 29.2696 22.8959 28.4485 23.1723 27.6794C23.4487 26.9104 23.8868 26.2119 24.456 25.6329C25.0251 25.0539 25.7116 24.6082 26.4675 24.327C27.2234 24.0457 28.0306 23.9357 28.8326 24.0046L28.8084 23.9813C29.5921 24.053 30.3809 23.9223 31.1017 23.6012C31.8225 23.2802 32.452 22.7793 32.9319 22.1448C33.4117 21.5104 33.7264 20.763 33.8467 19.9719C33.967 19.1808 33.8891 18.3716 33.6201 17.6193C33.3512 16.8669 32.8999 16.1959 32.3082 15.6682C31.7164 15.1406 31.0034 14.7735 30.235 14.6009C29.4667 14.4283 28.6679 14.4558 27.9128 14.6809C27.1577 14.9059 26.4706 15.3213 25.9153 15.8884H25.9115Z" fill="#0A071B"/>
<path d="M16.5177 22.7089L16.4935 22.6856C17.1752 22.7555 17.8636 22.6704 18.509 22.4364C19.1543 22.2024 19.7405 21.8255 20.2252 21.3328C20.7098 20.8401 21.0808 20.244 21.3112 19.5876C21.5417 18.9312 21.6259 18.2309 21.5577 17.5374L21.5819 17.5607C21.5142 16.7447 21.6223 15.9236 21.8988 15.1545C22.1752 14.3855 22.6133 13.6871 23.1824 13.1081C23.7516 12.529 24.4381 12.0834 25.194 11.8021C25.9499 11.5209 26.757 11.4108 27.5591 11.4797L27.5349 11.4564C28.4943 11.5481 29.4582 11.3364 30.2951 10.8503C31.132 10.3641 31.8011 9.62716 32.2111 8.73993C32.6212 7.8527 32.7522 6.85838 32.5864 5.8926C32.4205 4.92681 31.9659 4.03658 31.2845 3.34332C30.6031 2.65007 29.728 2.18754 28.7787 2.01883C27.8294 1.85012 26.8521 1.98344 25.98 2.40061C25.1079 2.81778 24.3835 3.49848 23.9057 4.34987C23.4278 5.20127 23.2197 6.1819 23.3098 7.15802L23.2869 7.1334C23.3549 7.94941 23.2469 8.77067 22.9705 9.53982C22.6941 10.309 22.2561 11.0075 21.6869 11.5865C21.1177 12.1656 20.4311 12.6113 19.6751 12.8925C18.9191 13.1736 18.1118 13.2835 17.3097 13.2144L17.3327 13.239C16.651 13.1691 15.9626 13.2542 15.3172 13.4882C14.6718 13.7221 14.0856 14.0991 13.601 14.5918C13.1163 15.0844 12.7454 15.6805 12.5149 16.3369C12.2845 16.9933 12.2003 17.6936 12.2685 18.3872L12.2455 18.3639C12.313 19.1798 12.2047 20.0009 11.9282 20.7698C11.6517 21.5387 11.2136 22.2371 10.6445 22.816C10.0754 23.395 9.38903 23.8407 8.63321 24.122C7.87739 24.4033 7.07034 24.5135 6.26835 24.4449L6.29127 24.4682C5.33181 24.3765 4.36792 24.5882 3.53105 25.0743C2.69419 25.5605 2.0251 26.2974 1.61505 27.1846C1.20501 28.0719 1.07396 29.0662 1.23979 30.032C1.40562 30.9978 1.86025 31.888 2.54168 32.5813C3.2231 33.2745 4.09814 33.737 5.04745 33.9057C5.99676 34.0745 6.97411 33.9411 7.8462 33.524C8.71829 33.1068 9.44266 32.4261 9.9205 31.5747C10.3984 30.7233 10.6064 29.7427 10.5163 28.7666L10.5405 28.7899C10.4728 27.9739 10.5809 27.1528 10.8574 26.3837C11.1338 25.6147 11.5719 24.9163 12.141 24.3372C12.7102 23.7582 13.3967 23.3125 14.1526 23.0313C14.9085 22.7501 15.7157 22.64 16.5177 22.7089Z" fill="#0A071B"/>
<path d="M7.98389 20.1086C8.46652 19.6148 8.83604 19.0186 9.06606 18.3627C9.29608 17.7068 9.38093 17.0073 9.31456 16.3142L9.33875 16.3375C9.271 15.5213 9.3792 14.6999 9.65578 13.9307C9.93237 13.1614 10.3707 12.4629 10.9401 11.8838C11.5095 11.3047 12.1964 10.8591 12.9526 10.578C13.7088 10.297 14.5163 10.1873 15.3185 10.2565L15.2943 10.2332C16.2534 10.3246 17.2169 10.1128 18.0534 9.62673C18.8899 9.14062 19.5586 8.40385 19.9684 7.5169C20.3782 6.62994 20.5091 5.63599 20.3433 4.67056C20.1775 3.70514 19.723 2.81524 19.0418 2.12224C18.3607 1.42924 17.4859 0.966859 16.537 0.798157C15.588 0.629455 14.611 0.762644 13.7392 1.17956C12.8674 1.59647 12.1432 2.27682 11.6654 3.12782C11.1876 3.97882 10.9794 4.95905 11.0693 5.93483L11.0463 5.91151C11.114 6.72747 11.0059 7.54863 10.7295 8.31768C10.453 9.08672 10.0149 9.78513 9.4458 10.3642C8.87667 10.9432 8.19018 11.3889 7.43425 11.6701C6.67833 11.9513 5.87118 12.0614 5.06915 11.9925L5.09207 12.0158C4.3084 11.9443 3.51967 12.0752 2.79897 12.3964C2.07827 12.7176 1.44891 13.2186 0.969219 13.8531C0.489528 14.4876 0.175022 15.235 0.0548473 16.0261C-0.0653274 16.8172 0.0127162 17.6263 0.281747 18.3786C0.550777 19.1308 1.00209 19.8018 1.59386 20.3293C2.18564 20.8568 2.89872 21.2239 3.66704 21.3964C4.43537 21.5689 5.23406 21.5414 5.98912 21.3162C6.74418 21.0911 7.43117 20.6758 7.98644 20.1086H7.98389Z" fill="#0A071B"/>
</svg>
