<svg width="24" height="24" viewBox="0 0 24 24" fill="none" xmlns="http://www.w3.org/2000/svg">
<path fill-rule="evenodd" clip-rule="evenodd" d="M6.71133 3.97084C10.2299 3.65624 13.7694 3.65624 17.288 3.97084L18.8053 4.10651C20.3177 4.24173 21.5396 5.39711 21.7593 6.89954C22.2538 10.2819 22.2538 13.7181 21.7593 17.1005C21.5396 18.6029 20.3177 19.7583 18.8053 19.8935L17.288 20.0292C13.7694 20.3438 10.2299 20.3438 6.71133 20.0292L5.19398 19.8935C3.68162 19.7583 2.45966 18.6029 2.24001 17.1005C1.74552 13.7181 1.74552 10.2819 2.24001 6.89954C2.45966 5.39711 3.68162 4.24173 5.19398 4.10651L6.71133 3.97084ZM5.85521 6.83965C5.62278 6.71449 5.34167 6.72075 5.11504 6.85611C4.88841 6.99148 4.74963 7.23602 4.74963 7.5V17C4.74963 17.4142 5.08542 17.75 5.49963 17.75C5.91385 17.75 6.24963 17.4142 6.24963 17V8.75566L11.6441 11.6604C11.866 11.7799 12.1332 11.7799 12.3552 11.6604L17.7496 8.75566V17C17.7496 17.4142 18.0854 17.75 18.4996 17.75C18.9138 17.75 19.2496 17.4142 19.2496 17V7.5C19.2496 7.23602 19.1109 6.99148 18.8842 6.85611C18.6576 6.72075 18.3765 6.71449 18.1441 6.83965L11.9996 10.1482L5.85521 6.83965Z" fill="black"/>
</svg>
