<svg width="20" height="20" viewBox="0 0 20 20" fill="none" xmlns="http://www.w3.org/2000/svg">
<path fill-rule="evenodd" clip-rule="evenodd" d="M4.77021 1.08148C8.21833 0.696105 11.783 0.696105 15.2312 1.08148C17.1296 1.29366 18.6607 2.78944 18.8836 4.69449C19.2958 8.21949 19.2958 11.7805 18.8836 15.3055C18.6607 17.2106 17.1296 18.7064 15.2312 18.9185C11.783 19.3039 8.21833 19.3039 4.77021 18.9185C2.87181 18.7064 1.34062 17.2106 1.1178 15.3055C0.705523 11.7805 0.705523 8.21949 1.1178 4.69449C1.34062 2.78944 2.87181 1.29366 4.77021 1.08148ZM8.87367 14.4069C8.92257 14.2903 8.94767 14.1652 8.94754 14.039V4.9585C8.94754 4.4295 8.5122 4 7.97347 4H4.97221C4.43601 4 4.00067 4.43 4.00067 4.9585V14.039C4.00094 14.2934 4.1033 14.5373 4.28537 14.7174C4.46744 14.8974 4.71439 14.9991 4.97221 15H7.97347C8.10143 15.0001 8.22815 14.9754 8.34639 14.9271C8.46463 14.8789 8.57206 14.8081 8.66254 14.7188C8.75302 14.6296 8.82476 14.5236 8.87367 14.4069ZM15.7161 10.7175C15.8982 10.5374 16.0005 10.2934 16.0007 10.039V4.9585C16.0007 4.4295 15.5648 4 15.0291 4H12.0279C11.4922 4 11.0538 4.43 11.0538 4.9585V10.039C11.0541 10.2938 11.1568 10.5381 11.3394 10.7182C11.522 10.8984 11.7696 10.9997 12.0279 11H15.0291C15.287 10.9992 15.534 10.8976 15.7161 10.7175Z" fill="black"/>
</svg>
